<?xml version="1.0" standalone="no"?>
<!DOCTYPE svg PUBLIC "-//W3C//DTD SVG 20010904//EN"
 "http://www.w3.org/TR/2001/REC-SVG-20010904/DTD/svg10.dtd">
<svg version="1.0" xmlns="http://www.w3.org/2000/svg"
 width="700.000000pt" height="700.000000pt" viewBox="0 0 700.000000 700.000000"
 preserveAspectRatio="xMidYMid meet">
<metadata>
Created by potrace 1.11, written by Peter Selinger 2001-2013
</metadata>
<g transform="translate(0.000000,700.000000) scale(0.100000,-0.100000)"
fill="#000000" stroke="none">
<path d="M3260 6728 c-230 -20 -298 -28 -360 -43 -3 -1 -25 -5 -50 -9 -25 -4
-70 -14 -100 -21 -30 -8 -66 -16 -80 -18 -115 -21 -520 -158 -557 -189 -7 -6
-13 -8 -13 -5 0 8 -217 -100 -331 -164 -82 -46 -211 -130 -334 -216 -170 -119
-428 -356 -575 -527 -23 -27 -47 -55 -53 -62 -14 -15 -19 -22 -67 -84 -19 -25
-37 -47 -41 -50 -27 -22 -224 -332 -289 -455 -17 -33 -35 -67 -40 -75 -19 -32
-84 -180 -122 -275 -125 -313 -208 -665 -235 -995 -10 -120 -10 -511 -1 -610
8 -83 52 -342 69 -405 6 -22 13 -49 15 -60 20 -107 122 -419 179 -550 8 -16
20 -50 29 -75 23 -69 67 -168 108 -240 19 -36 48 -86 62 -112 63 -115 81 -146
110 -188 37 -55 166 -218 244 -308 32 -37 71 -83 87 -102 54 -62 169 -184 190
-200 11 -8 50 -43 86 -78 36 -34 97 -85 135 -113 88 -63 239 -166 267 -181 21
-10 21 -10 5 8 -41 46 -71 135 -73 215 -2 87 11 208 30 272 17 57 183 408 217
459 92 138 187 177 341 142 81 -19 139 -51 242 -135 242 -195 533 -339 830
-410 181 -43 477 -61 635 -39 123 18 147 22 203 36 404 103 608 359 599 752
-4 201 -86 354 -283 527 -61 54 -288 195 -314 195 -8 0 -16 4 -19 9 -5 8 -93
52 -196 99 -25 12 -169 71 -320 132 -340 139 -494 214 -728 360 -292 183 -516
369 -684 568 -40 48 -75 89 -78 92 -31 28 -143 226 -198 350 -22 50 -79 223
-86 265 -3 14 -9 41 -15 58 -5 18 -15 66 -21 107 -6 41 -13 86 -16 100 -22
141 -22 540 2 651 2 13 7 42 10 64 16 112 75 301 135 433 183 398 546 728
1024 932 62 27 279 96 320 103 17 3 48 9 70 15 22 6 58 13 80 17 63 9 99 15
115 20 8 2 47 7 85 11 39 3 72 8 75 11 6 6 -224 0 -320 -9z"/>
<path d="M5601 5997 c-2 -70 -11 -179 -16 -208 -3 -13 -7 -41 -11 -63 -11 -74
-75 -269 -117 -355 -54 -112 -87 -160 -147 -215 -67 -60 -99 -67 -232 -53 -90
10 -132 26 -262 101 -96 56 -171 94 -301 152 -64 29 -245 84 -350 106 -97 20
-136 23 -335 22 l-225 -1 -95 -32 c-141 -48 -285 -135 -374 -226 -42 -43 -91
-123 -111 -180 -26 -72 -28 -282 -4 -379 26 -104 30 -118 48 -146 9 -14 23
-38 31 -54 25 -50 171 -188 267 -254 50 -34 94 -62 98 -62 4 0 37 -17 73 -39
67 -39 213 -113 287 -146 22 -10 101 -47 175 -83 74 -35 203 -96 285 -134 614
-287 991 -530 1175 -758 25 -30 47 -57 51 -60 3 -3 35 -50 71 -105 70 -106
151 -261 188 -360 13 -33 26 -69 31 -80 17 -44 39 -124 58 -210 64 -297 61
-631 -10 -960 -65 -307 -197 -589 -391 -837 -37 -49 -68 -90 -68 -93 0 -11
111 67 237 167 211 167 315 258 364 317 24 30 64 76 89 102 61 64 123 137 254
302 47 58 116 161 116 172 0 4 17 37 38 73 117 202 198 366 268 542 30 74 59
144 64 155 8 18 54 175 65 221 2 10 18 71 35 134 39 145 47 184 55 290 4 47
10 105 13 130 13 85 8 690 -6 757 -7 34 -14 75 -16 90 -2 15 -7 39 -10 53 -3
14 -8 36 -10 50 -16 97 -53 250 -78 330 -17 52 -32 104 -33 115 -10 119 -238
618 -381 835 -82 124 -117 171 -329 443 -94 120 -408 420 -493 469 l-29 17 -2
-52z"/>
</g>
</svg>
